<?xml version="1.0" standalone="no"?><!DOCTYPE svg PUBLIC "-//W3C//DTD SVG 1.1//EN" "http://www.w3.org/Graphics/SVG/1.1/DTD/svg11.dtd"><svg t="1528345619075" class="icon" style="" viewBox="0 0 1024 1024" version="1.1" xmlns="http://www.w3.org/2000/svg" p-id="5104" xmlns:xlink="http://www.w3.org/1999/xlink" width="200" height="200"><defs><style type="text/css"></style></defs><path d="M769.9 396.8h113.8v56.9H769.9zM769.9 283h113.8v56.9H769.9z" fill="#707070" p-id="5105"></path><path d="M995.6 56.9H28.4C14.2 56.9 0 71.1 0 85.3v796.4c0 14.2 14.2 28.4 28.4 28.4h142.2v28.4c0 14.2 14.2 28.4 28.4 28.4s28.4-14.2 28.4-28.4v-28.4h568.9v28.4c0 14.2 14.2 28.4 28.4 28.4s28.4-14.2 28.4-28.4v-28.4h142.2c14.2 0 28.4-14.2 28.4-28.4V85.3c0.3-14.2-13.9-28.4-28.1-28.4zM607 709.6c0 17.1-11.4 28.4-28.4 28.4H123.4c-17.1 0-28.4-11.4-28.4-28.4V254.5c0-17.1 11.4-28.4 28.4-28.4h455.1c17.1 0 28.4 11.4 28.4 28.4v455.1z m305.1 28.5H741.4c-14.2 0-28.4-14.2-28.4-28.4s14.2-28.4 28.4-28.4h170.7c14.2 0 28.4 14.2 28.4 28.4 0.1 14.2-14.2 28.4-28.4 28.4z m0-113.8H741.4c-14.2 0-28.4-14.2-28.4-28.4s14.2-28.4 28.4-28.4h170.7c14.2 0 28.4 14.2 28.4 28.4s-14.2 28.4-28.4 28.4z m28.5-142.2c0 14.2-14.2 28.4-28.4 28.4H741.4c-14.2 0-28.4-14.2-28.4-28.4V254.5c0-14.2 14.2-28.4 28.4-28.4h170.7c14.2 0 28.4 14.2 28.4 28.4v227.6z" fill="#707070" p-id="5106"></path><path d="M373.7 622.9c-5.7 0-14.2 2.8-22.8 2.8h-5.7c-11.4-2.8-19.9-11.4-22.8-19.9l-37-153.6-22.8 45.5c-5.7 8.5-14.2 17.1-25.6 17.1h-85.3v166.4h398.2V520.5h-99.6l-76.6 102.4z" fill="#707070" p-id="5107"></path><path d="M220.1 458l48.4-96.7c5.7-11.4 17.1-17.1 28.4-14.2 11.4 0 22.8 8.5 25.6 22.8l42.7 170.7 48.4-65.4c5.7-8.5 14.2-11.4 22.8-11.4h113.8V283H151.9v175h68.2z" fill="#707070" p-id="5108"></path></svg>