<?xml version="1.0" standalone="no"?><!DOCTYPE svg PUBLIC "-//W3C//DTD SVG 1.1//EN" "http://www.w3.org/Graphics/SVG/1.1/DTD/svg11.dtd"><svg t="1528345595943" class="icon" style="" viewBox="0 0 1024 1024" version="1.1" xmlns="http://www.w3.org/2000/svg" p-id="4477" xmlns:xlink="http://www.w3.org/1999/xlink" width="200" height="200"><defs><style type="text/css"></style></defs><path d="M512.682667 979.569778C247.580444 979.740444 30.151111 763.278222 29.582222 498.574222 29.013333 232.106667 249.173333 11.889778 514.275556 13.824c264.988444 1.934222 481.507556 219.704889 481.223111 483.953778-0.341333 264.647111-217.770667 481.621333-482.759111 481.792z m6.314666-883.029334C304.526222 89.884444 120.604444 267.093333 114.346667 486.229333c-6.257778 221.411556 167.082667 402.204444 393.443555 410.225778 214.584889 7.623111 400.896-173.511111 405.845334-394.467555 4.835556-217.372444-171.52-398.620444-394.581334-405.447112z" fill="#707070" p-id="4478"></path><path d="M430.990222 336.952889c69.347556 66.730667 128 132.608 177.493334 205.767111 38.001778 56.092444 22.584889 134.826667-29.184 168.675556-58.652444 38.343111-133.973333 20.252444-173.340445-40.504889-13.710222-21.219556-14.961778-44.088889-14.791111-67.697778 0.455111-88.746667 19.569778-174.648889 39.822222-266.24z m80.497778 202.183111c-45.056-0.568889-83.114667 36.864-82.375111 80.896 0.739556 40.789333 36.352 73.159111 79.701333 72.533333a80.099556 80.099556 0 0 0 79.587556-78.791111c0.455111-41.642667-32.995556-74.126222-76.913778-74.638222zM497.436444 216.860444c-16.725333 2.275556-25.941333 0-25.884444-19.228444 0.056889-20.024889 8.533333-24.064 26.112-23.552 15.303111 0.455111 24.120889 3.697778 24.860444 21.333333 0.853333 21.048889-9.841778 24.632889-25.031111 21.447111zM817.379556 392.305778c-1.137778 18.545778-16.611556 17.692444-28.444445 20.252444-18.204444 3.982222-18.659556-12.970667-19.569778-22.300444-1.706667-18.773333 18.033778-17.294222 28.444445-20.593778 18.318222-5.802667 11.946667 15.36 19.569778 22.641778zM228.352 619.178667c-18.204444-0.568889-20.536889-14.620444-20.935111-24.291556-0.910222-21.390222 20.48-18.147556 32.369778-21.560889 16.270222-4.664889 18.659556 13.596444 19.000889 22.983111 0.739556 21.162667-22.186667 13.482667-30.435556 22.869334zM319.089778 288.597333c-10.410667-7.68-25.144889-14.222222-22.755556-28.216889 1.934222-11.434667 10.808889-26.794667 24.291556-25.941333 12.970667 0.796444 24.007111 14.961778 24.348444 27.363556 0.398222 13.312-13.824 20.366222-25.884444 26.794666zM679.196444 270.791111c-11.150222-6.656-28.216889-10.979556-26.339555-25.088 1.422222-10.865778 9.329778-28.103111 24.064-27.420444 11.832889 0.512 27.249778 9.955556 26.737778 23.608889-0.568889 12.060444-11.946667 22.528-24.462223 28.956444zM240.298667 409.486222c-1.194667 12.856889-2.844444 24.974222-19.911111 22.357334-10.296889-1.592889-25.258667 3.128889-23.893334-16.497778 0.853333-12.117333 0.341333-24.291556 18.432-21.219556 10.752 1.820444 25.031111-2.275556 25.372445 15.36zM819.029333 569.287111c2.104889 15.928889-6.144 20.366222-20.764444 19.456-12.060444-0.739556-23.893333 0.967111-23.438222-17.351111 0.398222-15.075556 5.973333-21.333333 21.447111-19.512889 11.548444 1.308444 25.144889-1.706667 22.755555 17.408z" fill="#707070" p-id="4479"></path></svg>