<?xml version="1.0" standalone="no"?><!DOCTYPE svg PUBLIC "-//W3C//DTD SVG 1.1//EN" "http://www.w3.org/Graphics/SVG/1.1/DTD/svg11.dtd"><svg t="1528345517679" class="icon" style="" viewBox="0 0 1024 1024" version="1.1" xmlns="http://www.w3.org/2000/svg" p-id="3082" xmlns:xlink="http://www.w3.org/1999/xlink" width="200" height="200"><defs><style type="text/css"></style></defs><path d="M160.3582543 457.36970381l-15.84720088 15.64515527c-23.26622256 22.96475771-23.99957227 60.08872852-1.63026035 82.75202227L250.91628506 665.22845058c10.73620107 10.87838086 25.17870498 16.87560117 40.66136895 16.87560117 15.77985205 0 30.72800479-6.1842999 42.10668808-17.41652753l18.30916143-18.06649278-191.63524922-189.25132763zM263.22715654 436.32491152c0-13.58835469-11.05583906-24.64633125-24.64953837-24.64633124-13.59049307 0-24.64740088 11.05797656-24.64740088 24.64633125 0 13.59370019 11.05690781 24.64953838 24.64740088 24.64953925 13.59370019-0.00106875 24.64953838-11.05583906 24.64953837-24.64953925" fill="#8a8a8a" p-id="3083"></path><path d="M718.61396504 261.13444737c0.33994951-15.67508818-5.45629482-30.37308926-16.32612305-41.38189102L594.25021162 110.28564336c-10.72978682-10.88051924-25.17442911-16.87132529-40.65602344-16.87132529-15.7766458 0-30.72907354 6.1842999-42.10668896 17.41118203L213.81583203 404.61233662c6.83961065-5.34939258 15.4217294-8.57142862 24.76178614-8.57142861 22.21430362 0 40.28934902 18.07183828 40.28934902 40.28400352 0 22.21537237-18.07504541 40.28934902-40.28934902 40.28934902s-40.2861419-18.07397666-40.2861419-40.28934902c0-9.49506504 3.31824815-18.21615645 8.83227041-25.10814903l-35.63161436 35.16658945 191.63311085 189.25239639 138.84794912-137.03381719 68.30631123 63.21241494s2.73242373-10.64212646 3.98104277-12.66792539c0.10369512-0.15714668 3.79289443-9.1519084 14.70548408-22.08602109 9.33364248-11.07935684 25.05042246-18.80198086 25.19260225-18.8992626 2.00014278-1.38010869 10.42618359-3.4721877 10.4261836-3.47218681l-66.29975421-61.66981494 142.37251875-140.51562539c11.24719365-11.09218536 17.6196419-25.78591055 17.95638428-41.3690625" fill="#8a8a8a" p-id="3084"></path><path d="M643.61022383 512.63820722c-35.8839044 0-65.07251543 29.19288779-65.07251543 65.07358419 0 35.87749013 29.18861104 65.06503242 65.07251543 65.06503242 35.87962763 0 65.07144667-29.18861104 65.0714458-65.06503242 0-35.88176602-29.19074942-65.07358417-65.0714458-65.07358418" fill="#8a8a8a" p-id="3085"></path><path d="M122.95313018 550.57142832l-43.84064356 43.92830478 19.06816729 19.03075225-17.64209092 17.54801631c-7.51844092 7.47247237-8.18337305 19.04358076-1.47845918 25.79018642l68.24110078 68.62167247c3.02747432 3.03709482 7.16245576 4.71546123 11.65342236 4.71546211 5.12169082 0 10.27972793-2.20646426 14.15066133-6.05708614l17.98310918-17.88475869 17.5608457 17.53518868 43.84492031-43.91868341-129.54103329-129.30905478zM859.93991035 404.29697451v119.79154072H698.35918115l9.79759864 12.61981934c8.07967792 10.40587207 11.52941572 22.66970713 11.52941572 41.00345684 0 19.8538998-7.48743926 34.58717842-11.95168008 41.59676425l-7.6510002 12.01902891H859.93991035v123.31290322h89.62477295V404.29697451H859.93991035z" fill="#8a8a8a" p-id="3086"></path></svg>